<?xml version="1.0" encoding="UTF-8"?>
<svg id="Layer_1" data-name="Layer 1" xmlns="http://www.w3.org/2000/svg" xmlns:xlink="http://www.w3.org/1999/xlink" viewBox="0 0 180 180">
  <defs>
    <style>
      .cls-1 {
        fill: url(#linear-gradient);
      }
    </style>
    <linearGradient id="linear-gradient" x1="12.92" y1="60.62" x2="133.96" y2="125.06" gradientUnits="userSpaceOnUse">
      <stop offset="0" stop-color="#731db5"/>
      <stop offset=".33" stop-color="#6d19b3"/>
      <stop offset=".73" stop-color="#5e10af"/>
      <stop offset=".8" stop-color="#5b0faf"/>
    </linearGradient>
  </defs>
  <path class="cls-1" d="M144.96,43.89c-3.66-3.61-7.36-6.58-10.87-9.02-1.22-1.8-2.63-3.46-4.19-4.97-5.12-4.97-10.29-8.78-14.97-11.7-8.92-5.51-19.26-8.19-29.8-8.19h-32.92c-5.8,0-13.46.54-20.73,5.56-9.12,6.34-10.05,14.04-10.05,14.04v126.4h13.61c.49,0,.98,0,1.41-.05v14.04h13.65c10.14,0,13.36-5.46,18.24-14.39l10.68-19.41s34.23-.39,44.38-1.71c4.97-.63,14.68-5.22,22.09-12.73,16-16.29,18.97-58.96-.54-77.88ZM111.12,75.74l-38.82,23.9c-.44.29-.98.44-1.56.44-1.66,0-2.97-1.37-2.97-2.97v-47.74c0-.59.15-1.12.44-1.56.88-1.41,2.73-1.85,4.1-.98l38.82,23.85c.39.24.73.59.98.98.88,1.41.44,3.27-.98,4.1Z"/>
</svg>